<svg xmlns="http://www.w3.org/2000/svg" viewBox="0 0 229 32" fill="none">
  <!--
    Wordmark: Martijn van Houten
    Font: Inter Medium (500)
    Converted to vector paths for consistent rendering.
  -->
  <g transform="translate(0.06640625, 4)">
    <path d="M4.54 24L1.93 24L1.93 6.54L5.87 6.54L9.68 16.56Q9.84 17.00 10.05 17.68Q10.25 18.36 10.48 19.16Q10.70 19.96 10.90 20.73L10.90 20.73Q10.93 20.88 10.97 21.02L10.97 21.02Q11.00 20.89 11.04 20.77L11.04 20.77Q11.24 20.00 11.46 19.21Q11.68 18.41 11.89 17.71Q12.11 17.00 12.27 16.56L12.27 16.56L16.02 6.54L19.98 6.54L19.98 24L17.32 24L17.32 14.60Q17.32 14.06 17.33 13.31Q17.34 12.56 17.36 11.72Q17.38 10.89 17.40 10.03L17.40 10.03Q17.40 9.57 17.41 9.14L17.41 9.14Q17.27 9.64 17.12 10.15L17.12 10.15Q16.84 11.06 16.58 11.91Q16.31 12.75 16.07 13.45Q15.83 14.14 15.67 14.60L15.67 14.60L12.09 24L9.81 24L6.19 14.60Q6.01 14.16 5.78 13.47Q5.55 12.79 5.29 11.95Q5.02 11.11 4.73 10.20L4.73 10.20Q4.58 9.71 4.43 9.22L4.43 9.22Q4.44 9.57 4.45 9.94L4.45 9.94Q4.46 10.78 4.48 11.64Q4.50 12.49 4.52 13.26Q4.54 14.03 4.54 14.60L4.54 14.60L4.54 24ZM27.30 24.29L27.30 24.29Q26.06 24.29 25.05 23.83Q24.05 23.37 23.46 22.48Q22.88 21.59 22.88 20.30L22.88 20.30Q22.88 19.18 23.30 18.47Q23.73 17.75 24.46 17.33Q25.20 16.91 26.09 16.70Q26.99 16.49 27.91 16.38L27.91 16.38Q29.07 16.24 29.80 16.15Q30.53 16.07 30.87 15.86Q31.22 15.66 31.22 15.20L31.22 15.20L31.22 15.13Q31.22 14.39 30.94 13.89Q30.66 13.38 30.10 13.11Q29.54 12.83 28.71 12.83L28.71 12.83Q27.86 12.83 27.24 13.10Q26.63 13.36 26.24 13.77Q25.86 14.18 25.68 14.63L25.68 14.63L23.25 13.99Q23.70 12.82 24.53 12.11Q25.36 11.39 26.44 11.06Q27.52 10.73 28.66 10.73L28.66 10.73Q29.46 10.73 30.35 10.92Q31.24 11.11 32.03 11.60Q32.81 12.09 33.30 12.98Q33.80 13.88 33.80 15.30L33.80 15.30L33.80 24L31.30 24L31.30 22.21L31.17 22.21Q30.91 22.71 30.41 23.19Q29.91 23.67 29.14 23.98Q28.37 24.29 27.30 24.29ZM27.88 22.22L27.88 22.22Q28.93 22.22 29.68 21.81Q30.43 21.40 30.83 20.72Q31.23 20.04 31.23 19.28L31.23 19.28L31.23 17.60Q31.09 17.74 30.70 17.85Q30.30 17.96 29.80 18.05Q29.30 18.14 28.83 18.20Q28.36 18.26 28.05 18.29L28.05 18.29Q27.33 18.39 26.72 18.61Q26.12 18.83 25.76 19.24Q25.41 19.65 25.41 20.33L25.41 20.33Q25.41 20.95 25.73 21.38Q26.05 21.80 26.60 22.01Q27.15 22.22 27.88 22.22ZM39.84 24L37.27 24L37.27 10.90L39.76 10.90L39.76 13.01L39.90 13.01Q40.27 11.93 41.17 11.32Q42.07 10.71 43.22 10.71L43.22 10.71Q43.46 10.71 43.78 10.73Q44.10 10.75 44.31 10.78L44.31 10.78L44.31 13.24Q44.17 13.20 43.77 13.15Q43.37 13.10 42.96 13.10L42.96 13.10Q42.07 13.10 41.36 13.48Q40.64 13.85 40.24 14.51Q39.84 15.18 39.84 16.04L39.84 16.04L39.84 24ZM49.54 10.90L52.15 10.90L52.15 13.00L49.54 13.00L49.54 20.46Q49.54 21.25 49.87 21.62Q50.20 21.98 50.96 21.98L50.96 21.98Q51.16 21.98 51.49 21.94Q51.82 21.89 52.05 21.84L52.05 21.84L52.51 23.91Q52.10 24.05 51.63 24.11Q51.16 24.18 50.71 24.18L50.71 24.18Q48.93 24.18 47.94 23.26Q46.96 22.34 46.96 20.67L46.96 20.67L46.96 13.00L45.05 13.00L45.05 10.90L46.96 10.90L46.96 7.78L49.54 7.78L49.54 10.90ZM57.29 24L54.71 24L54.71 10.90L57.29 10.90L57.29 24ZM56.02 8.89L56.02 8.89Q55.35 8.89 54.87 8.45Q54.40 8.00 54.40 7.37L54.40 7.37Q54.40 6.73 54.87 6.28Q55.35 5.84 56.02 5.84L56.02 5.84Q56.68 5.84 57.16 6.28Q57.64 6.73 57.64 7.37L57.64 7.37Q57.64 8.00 57.16 8.45Q56.68 8.89 56.02 8.89ZM60.75 24.83L60.75 10.90L63.34 10.90L63.34 24.84Q63.35 26.18 62.87 27.08Q62.38 27.98 61.44 28.44Q60.50 28.90 59.14 28.90L59.14 28.90L58.63 28.90L58.63 26.68L59.04 26.68Q59.95 26.68 60.35 26.21Q60.75 25.73 60.75 24.83L60.75 24.83ZM62.05 8.89L62.05 8.89Q61.38 8.89 60.91 8.45Q60.43 8.00 60.43 7.37L60.43 7.37Q60.43 6.73 60.91 6.28Q61.38 5.84 62.05 5.84L62.05 5.84Q62.72 5.84 63.20 6.28Q63.68 6.73 63.68 7.37L63.68 7.37Q63.68 8.00 63.20 8.45Q62.72 8.89 62.05 8.89ZM69.39 16.24L69.39 16.24L69.39 24L66.81 24L66.81 10.90L69.27 10.90L69.29 13.41Q69.83 12.18 70.69 11.54L70.69 11.54Q71.78 10.73 73.32 10.73L73.32 10.73Q74.66 10.73 75.66 11.30Q76.65 11.86 77.21 12.96Q77.78 14.05 77.78 15.68L77.78 15.68L77.78 24L75.20 24L75.20 16.00Q75.20 14.58 74.46 13.78Q73.72 12.98 72.43 12.98L72.43 12.98Q71.57 12.98 70.88 13.37Q70.18 13.75 69.79 14.47Q69.39 15.20 69.39 16.24ZM94.21 24L91.39 24L86.45 10.90L89.24 10.90L91.83 18.34Q92.26 19.57 92.57 20.80L92.57 20.80Q92.70 21.30 92.82 21.81L92.82 21.81Q92.94 21.30 93.07 20.80L93.07 20.80Q93.38 19.57 93.80 18.34L93.80 18.34L96.39 10.90L99.15 10.90L94.21 24ZM105.11 24.29L105.11 24.29Q103.86 24.29 102.86 23.83Q101.85 23.37 101.26 22.48Q100.68 21.59 100.68 20.30L100.68 20.30Q100.68 19.18 101.10 18.47Q101.53 17.75 102.26 17.33Q103.00 16.91 103.89 16.70Q104.79 16.49 105.71 16.38L105.71 16.38Q106.88 16.24 107.60 16.15Q108.33 16.07 108.67 15.86Q109.02 15.66 109.02 15.20L109.02 15.20L109.02 15.13Q109.02 14.39 108.74 13.89Q108.46 13.38 107.90 13.11Q107.34 12.83 106.51 12.83L106.51 12.83Q105.66 12.83 105.04 13.10Q104.43 13.36 104.04 13.77Q103.66 14.18 103.48 14.63L103.48 14.63L101.05 13.99Q101.50 12.82 102.33 12.11Q103.16 11.39 104.24 11.06Q105.32 10.73 106.46 10.73L106.46 10.73Q107.26 10.73 108.15 10.92Q109.04 11.11 109.83 11.60Q110.61 12.09 111.11 12.98Q111.60 13.88 111.60 15.30L111.60 15.30L111.60 24L109.10 24L109.10 22.21L108.97 22.21Q108.71 22.71 108.21 23.19Q107.71 23.67 106.94 23.98Q106.17 24.29 105.11 24.29ZM105.68 22.22L105.68 22.22Q106.73 22.22 107.48 21.81Q108.23 21.40 108.63 20.72Q109.03 20.04 109.03 19.28L109.03 19.28L109.03 17.60Q108.89 17.74 108.50 17.85Q108.11 17.96 107.60 18.05Q107.10 18.14 106.63 18.20Q106.16 18.26 105.86 18.29L105.86 18.29Q105.13 18.39 104.53 18.61Q103.92 18.83 103.56 19.24Q103.21 19.65 103.21 20.33L103.21 20.33Q103.21 20.95 103.53 21.38Q103.85 21.80 104.40 22.01Q104.95 22.22 105.68 22.22ZM117.64 16.24L117.64 16.24L117.64 24L115.07 24L115.07 10.90L117.53 10.90L117.55 13.41Q118.09 12.18 118.95 11.54L118.95 11.54Q120.04 10.73 121.58 10.73L121.58 10.73Q122.92 10.73 123.91 11.30Q124.91 11.86 125.47 12.96Q126.04 14.05 126.04 15.68L126.04 15.68L126.04 24L123.46 24L123.46 16.00Q123.46 14.58 122.72 13.78Q121.98 12.98 120.69 12.98L120.69 12.98Q119.82 12.98 119.13 13.37Q118.44 13.75 118.04 14.47Q117.64 15.20 117.64 16.24ZM138.77 24L136.10 24L136.10 6.54L138.77 6.54L138.77 13.92L147.42 13.92L147.42 6.54L150.11 6.54L150.11 24L147.42 24L147.42 16.22L138.77 16.22L138.77 24ZM159.28 24.27L159.28 24.27Q157.44 24.27 156.06 23.43Q154.69 22.58 153.93 21.06Q153.16 19.54 153.16 17.52L153.16 17.52Q153.16 15.48 153.93 13.95Q154.69 12.42 156.06 11.58Q157.44 10.73 159.28 10.73L159.28 10.73Q161.13 10.73 162.51 11.58Q163.89 12.42 164.65 13.95Q165.41 15.48 165.41 17.52L165.41 17.52Q165.41 19.54 164.65 21.06Q163.89 22.58 162.51 23.43Q161.13 24.27 159.28 24.27ZM159.28 22.09L159.28 22.09Q160.48 22.09 161.26 21.46Q162.04 20.84 162.42 19.80Q162.80 18.76 162.80 17.52L162.80 17.52Q162.80 16.27 162.42 15.22Q162.04 14.17 161.26 13.54Q160.48 12.91 159.28 12.91L159.28 12.91Q158.10 12.91 157.32 13.54Q156.55 14.17 156.17 15.21Q155.79 16.25 155.79 17.52L155.79 17.52Q155.79 18.76 156.17 19.80Q156.55 20.84 157.32 21.46Q158.10 22.09 159.28 22.09ZM172.73 24.16L172.73 24.16Q171.40 24.16 170.39 23.60Q169.38 23.04 168.83 21.94Q168.27 20.84 168.27 19.22L168.27 19.22L168.27 10.90L170.85 10.90L170.85 18.90Q170.85 20.32 171.59 21.12Q172.34 21.91 173.61 21.91L173.61 21.91Q174.49 21.91 175.18 21.53Q175.86 21.15 176.26 20.42Q176.66 19.69 176.66 18.66L176.66 18.66L176.66 10.90L179.24 10.90L179.24 24L176.78 24L176.77 21.45Q176.23 22.72 175.34 23.37L175.34 23.37Q174.23 24.16 172.73 24.16ZM185.70 10.90L188.31 10.90L188.31 13.00L185.70 13.00L185.70 20.46Q185.70 21.25 186.03 21.62Q186.36 21.98 187.13 21.98L187.13 21.98Q187.32 21.98 187.65 21.94Q187.98 21.89 188.21 21.84L188.21 21.84L188.67 23.91Q188.26 24.05 187.79 24.11Q187.32 24.18 186.87 24.18L186.87 24.18Q185.09 24.18 184.10 23.26Q183.12 22.34 183.12 20.67L183.12 20.67L183.12 13.00L181.21 13.00L181.21 10.90L183.12 10.90L183.12 7.78L185.70 7.78L185.70 10.90ZM196.52 24.27L196.52 24.27Q194.59 24.27 193.18 23.44Q191.78 22.61 191.02 21.09Q190.27 19.58 190.27 17.54L190.27 17.54Q190.27 15.53 191.01 13.99Q191.75 12.46 193.11 11.60Q194.47 10.73 196.30 10.73L196.30 10.73Q197.43 10.73 198.47 11.10Q199.51 11.47 200.34 12.26Q201.18 13.04 201.66 14.29Q202.15 15.54 202.15 17.32L202.15 17.32L202.15 18.23L192.86 18.23Q192.90 19.42 193.32 20.25L193.32 20.25Q193.78 21.19 194.61 21.66Q195.45 22.14 196.55 22.14L196.55 22.14Q197.27 22.14 197.86 21.93Q198.45 21.73 198.87 21.31Q199.30 20.89 199.52 20.29L199.52 20.29L201.95 20.86Q201.63 21.87 200.89 22.64Q200.14 23.41 199.04 23.84Q197.93 24.27 196.52 24.27ZM192.87 16.31L192.87 16.31L199.59 16.31Q199.51 15.49 199.24 14.81L199.24 14.81Q198.87 13.90 198.13 13.38Q197.40 12.87 196.30 12.87L196.30 12.87Q195.21 12.87 194.44 13.39Q193.66 13.92 193.27 14.78L193.27 14.78Q192.93 15.49 192.87 16.31ZM207.55 16.24L207.55 16.24L207.55 24L204.97 24L204.97 10.90L207.43 10.90L207.46 13.41Q208.00 12.18 208.85 11.54L208.85 11.54Q209.94 10.73 211.49 10.73L211.49 10.73Q212.82 10.73 213.82 11.30Q214.82 11.86 215.38 12.96Q215.94 14.05 215.94 15.68L215.94 15.68L215.94 24L213.36 24L213.36 16.00Q213.36 14.58 212.63 13.78Q211.89 12.98 210.60 12.98L210.60 12.98Q209.73 12.98 209.04 13.37Q208.35 13.75 207.95 14.47Q207.55 15.20 207.55 16.24Z" fill="currentColor"/>
    <circle cx="223.1" cy="25.7" r="3.2" class="accent" fill="#4B9ECC"/>
  </g>
  <style>
    @media (prefers-color-scheme: dark) { .accent { fill: #8BC4E0; } }
    .dark .accent { fill: #8BC4E0; }
  </style>
</svg>