<svg xmlns="http://www.w3.org/2000/svg" viewBox="0 0 240 32" fill="none">
  <!--
    Wordmark: Martijn van Houten
    Clean geometric sans-serif letterforms with accent period.
    Uses currentColor for theme-aware rendering.
  -->
  <g fill="currentColor">
    <!-- M -->
    <path d="M0 24V6h2.4l7.2 12 7.2-12H19.2v18h-2.4V10.4L10.2 20h-1.2L2.4 10.4V24H0z"/>
    <!-- a -->
    <path d="M25.5 24.3c-1.4 0-2.5-.4-3.3-1.1-.8-.7-1.2-1.7-1.2-2.9 0-1.3.5-2.3 1.4-3 .9-.7 2.2-1 3.8-1h3v-.5c0-.9-.2-1.5-.7-2-.5-.4-1.2-.7-2.1-.7-.8 0-1.4.2-2 .5-.5.3-.9.8-1.1 1.4l-2-.8c.3-.9.9-1.7 1.8-2.3.9-.6 2-.9 3.3-.9 1.6 0 2.9.4 3.8 1.3.9.9 1.4 2.1 1.4 3.7V24h-2.2v-1.8c-.4.6-.9 1.1-1.6 1.5-.7.4-1.5.6-2.3.6zm.4-2c1.1 0 2-.4 2.6-1.1.7-.7 1-1.6 1-2.6v-.6h-2.8c-1.1 0-1.9.2-2.4.6-.5.4-.8.9-.8 1.6 0 .6.2 1.2.7 1.5.4.4 1 .6 1.7.6z"/>
    <!-- r -->
    <path d="M38.5 24v-9.8c0-.9-.1-1.6-.3-2.1h2.3v2c.3-.6.7-1.1 1.3-1.5.6-.4 1.3-.7 2.1-.7.3 0 .5 0 .8.1v2.2c-.3-.1-.7-.1-1-.1-.9 0-1.7.3-2.3.9-.6.6-.9 1.4-.9 2.5V24h-2z"/>
    <!-- t -->
    <path d="M49.5 24c-1 0-1.8-.3-2.3-.8-.5-.5-.8-1.3-.8-2.3v-8.3h-2v-1.8h2V7.5h2v3.3h3v1.8h-3v7.9c0 .6.1 1 .4 1.3.3.3.7.4 1.2.4h1.4v1.8h-1.9z"/>
    <!-- i -->
    <path d="M55 24V10.8h2V24h-2zm1-15.5c-.4 0-.7-.1-1-.4-.3-.3-.4-.6-.4-1s.1-.7.4-1c.3-.3.6-.4 1-.4s.7.1 1 .4c.3.3.4.6.4 1s-.1.7-.4 1c-.3.3-.6.4-1 .4z"/>
    <!-- j -->
    <path d="M62 27.5c-.7 0-1.3-.1-1.8-.3v-2c.5.2 1 .3 1.5.3.5 0 .9-.2 1.2-.5.3-.3.4-.8.4-1.4V10.8h2v13.5c0 1.1-.3 1.9-.9 2.5-.6.5-1.4.8-2.4.8zm2.5-19c-.4 0-.7-.1-1-.4-.3-.3-.4-.6-.4-1s.1-.7.4-1c.3-.3.6-.4 1-.4s.7.1 1 .4c.3.3.4.6.4 1s-.1.7-.4 1c-.3.3-.6.4-1 .4z"/>
    <!-- n -->
    <path d="M70 24V10.8h2.2v1.8c.3-.6.8-1.1 1.5-1.5.7-.4 1.4-.6 2.3-.6 1.3 0 2.3.4 3 1.3.7.9 1.1 2.1 1.1 3.6V24h-2v-8.2c0-1.1-.2-2-.7-2.6-.5-.6-1.2-.9-2.1-.9-1 0-1.8.4-2.4 1.1-.6.7-.9 1.6-.9 2.8V24H70z"/>
    <!-- space + v -->
    <path d="M90 24l-5-13.2h2.3l3.8 10.6 3.8-10.6h2.2L92 24h-2z"/>
    <!-- a -->
    <path d="M101.5 24.3c-1.4 0-2.5-.4-3.3-1.1-.8-.7-1.2-1.7-1.2-2.9 0-1.3.5-2.3 1.4-3 .9-.7 2.2-1 3.8-1h3v-.5c0-.9-.2-1.5-.7-2-.5-.4-1.2-.7-2.1-.7-.8 0-1.4.2-2 .5-.5.3-.9.8-1.1 1.4l-2-.8c.3-.9.9-1.7 1.8-2.3.9-.6 2-.9 3.3-.9 1.6 0 2.9.4 3.8 1.3.9.9 1.4 2.1 1.4 3.7V24h-2.2v-1.8c-.4.6-.9 1.1-1.6 1.5-.7.4-1.5.6-2.3.6zm.4-2c1.1 0 2-.4 2.6-1.1.7-.7 1-1.6 1-2.6v-.6h-2.8c-1.1 0-1.9.2-2.4.6-.5.4-.8.9-.8 1.6 0 .6.2 1.2.7 1.5.4.4 1 .6 1.7.6z"/>
    <!-- n -->
    <path d="M113 24V10.8h2.2v1.8c.3-.6.8-1.1 1.5-1.5.7-.4 1.4-.6 2.3-.6 1.3 0 2.3.4 3 1.3.7.9 1.1 2.1 1.1 3.6V24h-2v-8.2c0-1.1-.2-2-.7-2.6-.5-.6-1.2-.9-2.1-.9-1 0-1.8.4-2.4 1.1-.6.7-.9 1.6-.9 2.8V24H113z"/>
    <!-- space + H -->
    <path d="M132 24V6h2.2v7.4h8.6V6h2.2v18h-2.2v-8.4h-8.6V24H132z"/>
    <!-- o -->
    <path d="M151 24.3c-1.5 0-2.8-.5-3.7-1.5-.9-1-1.4-2.4-1.4-4.1 0-1.7.5-3.1 1.4-4.1.9-1 2.2-1.5 3.7-1.5s2.8.5 3.7 1.5c.9 1 1.4 2.4 1.4 4.1 0 1.7-.5 3.1-1.4 4.1-.9 1-2.2 1.5-3.7 1.5zm0-2c1 0 1.7-.4 2.3-1.1.6-.7.8-1.8.8-3.1 0-1.3-.3-2.4-.8-3.1-.6-.7-1.3-1.1-2.3-1.1-1 0-1.7.4-2.3 1.1-.6.7-.8 1.8-.8 3.1 0 1.3.3 2.4.8 3.1.6.7 1.3 1.1 2.3 1.1z"/>
    <!-- u -->
    <path d="M159 10.8h2v8.2c0 1.1.2 2 .7 2.6.5.6 1.2.9 2.1.9 1 0 1.8-.4 2.4-1.1.6-.7.9-1.6.9-2.8v-7.8h2V24h-2.2v-1.8c-.3.6-.8 1.1-1.5 1.5-.7.4-1.4.6-2.3.6-1.3 0-2.3-.4-3-1.3-.7-.9-1.1-2.1-1.1-3.6v-8.6z"/>
    <!-- t -->
    <path d="M175.5 24c-1 0-1.8-.3-2.3-.8-.5-.5-.8-1.3-.8-2.3v-8.3h-2v-1.8h2V7.5h2v3.3h3v1.8h-3v7.9c0 .6.1 1 .4 1.3.3.3.7.4 1.2.4h1.4v1.8h-1.9z"/>
    <!-- e -->
    <path d="M183 24.3c-1.5 0-2.8-.5-3.7-1.5-.9-1-1.4-2.4-1.4-4.1 0-1.7.5-3.1 1.4-4.1.9-1 2.1-1.5 3.6-1.5 1.5 0 2.6.5 3.5 1.4.9.9 1.3 2.2 1.3 3.8v.9h-7.8c.1 1.1.4 2 1 2.6.6.6 1.3.9 2.2.9.7 0 1.3-.2 1.8-.5.5-.3.9-.8 1.1-1.4l1.9.7c-.4 1-1 1.7-1.8 2.2-.9.5-1.9.6-3.1.6zm-3-6.6h5.8c0-1-.3-1.8-.8-2.4-.5-.6-1.2-.9-2.1-.9-.9 0-1.6.3-2.1.9-.5.6-.8 1.4-.8 2.4z"/>
    <!-- n -->
    <path d="M192.5 24V10.8h2.2v1.8c.3-.6.8-1.1 1.5-1.5.7-.4 1.4-.6 2.3-.6 1.3 0 2.3.4 3 1.3.7.9 1.1 2.1 1.1 3.6V24h-2v-8.2c0-1.1-.2-2-.7-2.6-.5-.6-1.2-.9-2.1-.9-1 0-1.8.4-2.4 1.1-.6.7-.9 1.6-.9 2.8V24h-2z"/>
  </g>
  <!-- Accent period -->
  <circle cx="208" cy="22" r="2.5" fill="#4B9ECC" class="logo-accent"/>
  <style>
    @media (prefers-color-scheme: dark) {
      .logo-accent { fill: #8BC4E0; }
    }
    .dark .logo-accent { fill: #8BC4E0; }
  </style>
</svg>
