<svg xmlns="http://www.w3.org/2000/svg" viewBox="0 0 212 32" fill="none">
  <!--
    Wordmark: Martijn van Houten
    Font: Plus Jakarta Sans Medium (500)
    Clean vector paths, no decorative elements.
  -->
  <g transform="translate(0.008000000000000007, 4)">
    <path d="M4.34 24L1.99 24L1.99 6.12L4.15 6.12L10.30 14.86L16.39 6.12L18.55 6.12L18.55 24L16.18 24L16.18 10.54L10.37 18.72L10.18 18.72L4.34 10.42L4.34 24ZM26.04 24.29L26.04 24.29Q24.77 24.29 23.80 23.82Q22.82 23.35 22.27 22.52Q21.72 21.70 21.72 20.62L21.72 20.62Q21.72 19.58 22.16 18.76Q22.61 17.93 23.56 17.35Q24.50 16.78 25.94 16.54L25.94 16.54L30.36 15.82L30.36 15.22Q30.36 14.16 29.58 13.50Q28.80 12.84 27.53 12.84L27.53 12.84Q26.42 12.84 25.57 13.40Q24.72 13.97 24.31 14.90L24.31 14.90L22.37 13.90Q22.73 13.01 23.52 12.30Q24.31 11.59 25.37 11.18Q26.42 10.78 27.58 10.78L27.58 10.78Q29.06 10.78 30.19 11.34Q31.32 11.90 31.96 12.90Q32.59 13.90 32.59 15.22L32.59 15.22L32.59 24L30.41 24L30.41 22.32Q30.10 22.70 29.71 23.04L29.71 23.04Q29.02 23.62 28.08 23.95Q27.14 24.29 26.04 24.29ZM30.36 18.50L30.36 17.69L26.45 18.34Q25.20 18.55 24.64 19.13Q24.07 19.70 24.07 20.54L24.07 20.54Q24.07 21.34 24.71 21.86Q25.34 22.39 26.30 22.39L26.30 22.39Q27.53 22.39 28.43 21.88Q29.33 21.36 29.84 20.47Q30.36 19.58 30.36 18.50L30.36 18.50ZM38.28 24L36.05 24L36.05 11.06L38.23 11.06L38.23 12.62Q38.66 11.88 39.38 11.45L39.38 11.45Q40.32 10.92 41.66 10.92L41.66 10.92L42.46 10.92L42.46 13.03L41.33 13.03Q39.96 13.03 39.12 13.88Q38.28 14.74 38.28 16.30L38.28 16.30L38.28 24ZM49.82 24.14L49.82 24.14Q47.93 24.14 46.91 23.06Q45.89 21.98 45.89 20.02L45.89 20.02L45.89 13.20L43.54 13.20L43.54 11.06L44.02 11.06Q44.88 11.06 45.38 10.54Q45.89 10.01 45.89 9.14L45.89 9.14L45.89 8.09L48.12 8.09L48.12 11.06L51.02 11.06L51.02 13.20L48.12 13.20L48.12 19.94Q48.12 20.59 48.32 21.07Q48.53 21.55 49.01 21.83Q49.49 22.10 50.28 22.10L50.28 22.10Q50.45 22.10 50.70 22.08Q50.95 22.06 51.17 22.03L51.17 22.03L51.17 24Q50.86 24.07 50.47 24.11Q50.09 24.14 49.82 24.14ZM56.30 24L54.07 24L54.07 11.06L56.30 11.06L56.30 24ZM56.30 9L54.07 9L54.07 6.12L56.30 6.12L56.30 9ZM57.55 29.28L57.55 29.28Q57.34 29.28 57.02 29.26Q56.71 29.23 56.52 29.18L56.52 29.18L56.52 27.17Q57 27.24 57.48 27.24L57.48 27.24Q58.46 27.24 59.11 26.69Q59.76 26.14 59.76 25.01L59.76 25.01L59.76 11.06L61.99 11.06L61.99 25.01Q61.99 26.40 61.42 27.35Q60.84 28.30 59.83 28.79Q58.82 29.28 57.55 29.28ZM61.99 9L59.76 9L59.76 6.12L61.99 6.12L61.99 9ZM67.68 24L65.45 24L65.45 11.06L67.63 11.06L67.63 12.65Q68.09 11.93 68.83 11.45L68.83 11.45Q69.89 10.78 71.33 10.78L71.33 10.78Q72.72 10.78 73.81 11.40Q74.90 12.02 75.54 13.13Q76.18 14.23 76.18 15.62L76.18 15.62L76.18 24L73.92 24L73.92 16.34Q73.92 15.26 73.54 14.52Q73.15 13.78 72.44 13.36Q71.74 12.94 70.82 12.94Q69.91 12.94 69.20 13.36Q68.50 13.78 68.09 14.53Q67.68 15.29 67.68 16.34L67.68 16.34L67.68 24ZM89.23 24L87.12 24L82.06 11.06L84.55 11.06L88.18 20.86L91.82 11.06L94.32 11.06L89.23 24ZM99.62 24.29L99.62 24.29Q98.35 24.29 97.38 23.82Q96.41 23.35 95.86 22.52Q95.30 21.70 95.30 20.62L95.30 20.62Q95.30 19.58 95.75 18.76Q96.19 17.93 97.14 17.35Q98.09 16.78 99.53 16.54L99.53 16.54L103.94 15.82L103.94 15.22Q103.94 14.16 103.16 13.50Q102.38 12.84 101.11 12.84L101.11 12.84Q100.01 12.84 99.16 13.40Q98.30 13.97 97.90 14.90L97.90 14.90L95.95 13.90Q96.31 13.01 97.10 12.30Q97.90 11.59 98.95 11.18Q100.01 10.78 101.16 10.78L101.16 10.78Q102.65 10.78 103.78 11.34Q104.90 11.90 105.54 12.90Q106.18 13.90 106.18 15.22L106.18 15.22L106.18 24L103.99 24L103.99 22.32Q103.68 22.70 103.30 23.04L103.30 23.04Q102.60 23.62 101.66 23.95Q100.73 24.29 99.62 24.29ZM103.94 18.50L103.94 17.69L100.03 18.34Q98.78 18.55 98.22 19.13Q97.66 19.70 97.66 20.54L97.66 20.54Q97.66 21.34 98.29 21.86Q98.93 22.39 99.89 22.39L99.89 22.39Q101.11 22.39 102.01 21.88Q102.91 21.36 103.43 20.47Q103.94 19.58 103.94 18.50L103.94 18.50ZM111.86 24L109.63 24L109.63 11.06L111.82 11.06L111.82 12.65Q112.27 11.93 113.02 11.45L113.02 11.45Q114.07 10.78 115.51 10.78L115.51 10.78Q116.90 10.78 118.00 11.40Q119.09 12.02 119.72 13.13Q120.36 14.23 120.36 15.62L120.36 15.62L120.36 24L118.10 24L118.10 16.34Q118.10 15.26 117.72 14.52Q117.34 13.78 116.63 13.36Q115.92 12.94 115.01 12.94Q114.10 12.94 113.39 13.36Q112.68 13.78 112.27 14.53Q111.86 15.29 111.86 16.34L111.86 16.34L111.86 24ZM130.32 24L127.97 24L127.97 6.12L130.32 6.12L130.32 14.09L139.27 14.09L139.27 6.12L141.65 6.12L141.65 24L139.27 24L139.27 16.25L130.32 16.25L130.32 24ZM151.49 24.29L151.49 24.29Q149.62 24.29 148.10 23.41Q146.59 22.54 145.70 21Q144.82 19.46 144.82 17.52L144.82 17.52Q144.82 15.58 145.69 14.06Q146.57 12.55 148.08 11.66Q149.59 10.78 151.49 10.78L151.49 10.78Q153.36 10.78 154.87 11.65Q156.38 12.53 157.26 14.04Q158.14 15.55 158.14 17.52L158.14 17.52Q158.14 19.49 157.22 21.01Q156.31 22.54 154.81 23.41Q153.31 24.29 151.49 24.29ZM151.49 22.13L151.49 22.13Q152.69 22.13 153.66 21.53Q154.63 20.93 155.20 19.87Q155.76 18.82 155.76 17.52L155.76 17.52Q155.76 16.20 155.20 15.18Q154.63 14.16 153.66 13.55Q152.69 12.94 151.49 12.94L151.49 12.94Q150.26 12.94 149.29 13.55Q148.32 14.16 147.74 15.18Q147.17 16.20 147.17 17.52L147.17 17.52Q147.17 18.82 147.74 19.87Q148.32 20.93 149.29 21.53Q150.26 22.13 151.49 22.13ZM165.62 24.29L165.62 24.29Q164.23 24.29 163.12 23.64Q162.00 22.99 161.39 21.83Q160.78 20.66 160.78 19.15L160.78 19.15L160.78 11.06L163.01 11.06L163.01 18.91Q163.01 19.87 163.40 20.59Q163.80 21.31 164.51 21.72Q165.22 22.13 166.13 22.13Q167.04 22.13 167.75 21.72Q168.46 21.31 168.85 20.54Q169.25 19.78 169.25 18.72L169.25 18.72L169.25 11.06L171.50 11.06L171.50 24L169.32 24L169.32 22.44Q168.86 23.14 168.14 23.59L168.14 23.59Q167.04 24.29 165.62 24.29ZM180.22 24.14L180.22 24.14Q178.32 24.14 177.30 23.06Q176.28 21.98 176.28 20.02L176.28 20.02L176.28 13.20L173.93 13.20L173.93 11.06L174.41 11.06Q175.27 11.06 175.78 10.54Q176.28 10.01 176.28 9.14L176.28 9.14L176.28 8.09L178.51 8.09L178.51 11.06L181.42 11.06L181.42 13.20L178.51 13.20L178.51 19.94Q178.51 20.59 178.72 21.07Q178.92 21.55 179.40 21.83Q179.88 22.10 180.67 22.10L180.67 22.10Q180.84 22.10 181.09 22.08Q181.34 22.06 181.56 22.03L181.56 22.03L181.56 24Q181.25 24.07 180.86 24.11Q180.48 24.14 180.22 24.14ZM190.06 24.29L190.06 24.29Q188.18 24.29 186.72 23.40Q185.26 22.51 184.42 20.96Q183.58 19.42 183.58 17.50L183.58 17.50Q183.58 15.55 184.40 14.04Q185.23 12.53 186.66 11.65Q188.09 10.78 189.86 10.78L189.86 10.78Q191.30 10.78 192.42 11.29Q193.54 11.81 194.32 12.68Q195.10 13.56 195.52 14.68Q195.94 15.79 195.94 16.99L195.94 16.99Q195.94 17.26 195.90 17.58Q195.86 17.90 195.82 18.19L195.82 18.19L185.93 18.19Q185.98 19.20 186.38 19.99L186.38 19.99Q186.91 21.07 187.91 21.66Q188.90 22.25 190.08 22.25L190.08 22.25Q191.38 22.25 192.26 21.65Q193.15 21.05 193.70 20.11L193.70 20.11L195.58 21.07Q195.19 21.96 194.39 22.69Q193.58 23.42 192.49 23.86Q191.40 24.29 190.06 24.29ZM185.98 16.27L185.98 16.27L193.54 16.27Q193.51 15.53 193.22 14.90L193.22 14.90Q192.77 13.92 191.88 13.34Q190.99 12.77 189.86 12.77Q188.74 12.77 187.80 13.34Q186.86 13.92 186.36 14.98L186.36 14.98Q186.07 15.58 185.98 16.27ZM201.07 24L198.84 24L198.84 11.06L201.02 11.06L201.02 12.65Q201.48 11.93 202.22 11.45L202.22 11.45Q203.28 10.78 204.72 10.78L204.72 10.78Q206.11 10.78 207.20 11.40Q208.30 12.02 208.93 13.13Q209.57 14.23 209.57 15.62L209.57 15.62L209.57 24L207.31 24L207.31 16.34Q207.31 15.26 206.93 14.52Q206.54 13.78 205.84 13.36Q205.13 12.94 204.22 12.94Q203.30 12.94 202.60 13.36Q201.89 13.78 201.48 14.53Q201.07 15.29 201.07 16.34L201.07 16.34L201.07 24Z" fill="currentColor"/>
  </g>
</svg>